# xmcd
#
# Track frame offsets: 
#        150
#        12677
#        23990
#        47557
#        63720
#        83982
#        113842
#        124132
#        145845
#        159992
#        182582
#        199907
#        220355
#        238995
#        256887
#
# Disc length: 3674 seconds
#
# Revision: 4
# Processed by: cddbd v1.5.2PL0 Copyright (c) Steve Scherf et al.
# Submitted via: ExactAudioCopy v0.99pb5
#
DISCID=dd0e580f
DTITLE=Various Artist - This Is The Blues Harmonica Deluxe
DYEAR=2000
DGENRE=Blues
TTITLE0=Little Walter - Red Headed Woman
TTITLE1=Carey Bell - Deep Down South
TTITLE2=Willie Kent (Mad Dog Lester Davenport) - Ain't It Nice
TTITLE3=Louis Myers - Top Of The Harp
TTITLE4=Hammie Nixon - New York City Blues
TTITLE5=Bonnie Lee (Billy Branch) - I Got The Blues About My Baby
TTITLE6=Harmonica Goerge - Sputnik Music
TTITLE7=Little Sammy Davis - Hey Little Girl
TTITLE8=Big Walter Horton - Hard-Hearted Woman (alt)
TTITLE9=Dave Specter (Lynwood Slim) - Hopeless
TTITLE10=Jimmy Burns - Shake Your Boogie
TTITLE11=Junior Wells - This Is The Blues
TTITLE12=Golden 'Big' Wheeler - Guilty
TTITLE13=Billy Boy Arnold - Streetwise Advisor
TTITLE14=Steve Freund (Kim Wilson) - 'C' For Chicago
EXTD=Delmark Records (746)
EXTT0=
EXTT1=
EXTT2=
EXTT3=
EXTT4=
EXTT5=
EXTT6=
EXTT7=
EXTT8=
EXTT9=
EXTT10=
EXTT11=
EXTT12=
EXTT13=
EXTT14=
PLAYORDER=
